<?xml version="1.0" encoding="UTF-8" standalone="no"?>
<!-- Created with Inkscape (http://www.inkscape.org/) -->

<svg
   xmlns:dc="http://purl.org/dc/elements/1.1/"
   xmlns:cc="http://creativecommons.org/ns#"
   xmlns:rdf="http://www.w3.org/1999/02/22-rdf-syntax-ns#"
   xmlns:svg="http://www.w3.org/2000/svg"
   xmlns="http://www.w3.org/2000/svg"
   xmlns:sodipodi="http://sodipodi.sourceforge.net/DTD/sodipodi-0.dtd"
   xmlns:inkscape="http://www.inkscape.org/namespaces/inkscape"
   id="svg8592"
   version="1.1"
   inkscape:version="0.91 r13725"
   width="512.09998"
   height="447.29999"
   viewBox="0 0 512.09998 447.29999"
   sodipodi:docname="shuffle1.svg">
  <metadata
     id="metadata8598">
    <rdf:RDF>
      <cc:Work
         rdf:about="">
        <dc:format>image/svg+xml</dc:format>
        <dc:type
           rdf:resource="http://purl.org/dc/dcmitype/StillImage" />
        <dc:title></dc:title>
      </cc:Work>
    </rdf:RDF>
  </metadata>
  <defs
     id="defs8596" />
  <sodipodi:namedview
     pagecolor="#ffffff"
     bordercolor="#666666"
     borderopacity="1"
     objecttolerance="10"
     gridtolerance="10"
     guidetolerance="10"
     inkscape:pageopacity="0"
     inkscape:pageshadow="2"
     inkscape:window-width="1536"
     inkscape:window-height="801"
     id="namedview8594"
     showgrid="false"
     inkscape:zoom="0.52761012"
     inkscape:cx="256.04999"
     inkscape:cy="223.64999"
     inkscape:window-x="-8"
     inkscape:window-y="-8"
     inkscape:window-maximized="1"
     inkscape:current-layer="svg8592" />
  <path
     style="fill:#28823c;fill-opacity:1"
     d="m 399.3868,448.38043 c -3.46312,-1.49265 -7.38531,-6.97581 -8.411,-11.75844 -0.5749,-2.68067 -0.9898,-14.34891 -0.9898,-27.83636 l 0,-23.22111 -11.92499,-0.62496 c -51.92694,-2.72136 -99.1524,-22.30317 -134.02281,-55.57191 -5.35351,-5.10762 -6.10494,-6.25565 -6.99518,-10.6872 -1.57776,-7.85392 -0.0613,-11.25524 12.6711,-28.42099 11.40492,-15.37604 12.92404,-16.94511 17.7442,-18.32751 4.56968,-1.31056 8.47263,0.47196 16.92857,7.73144 25.78995,22.14086 64.87921,38.67702 97.72412,41.3408 l 7.87499,0.63868 0,-23.47947 c 0,-28.22978 0.51886,-31.49818 5.84883,-36.84307 3.19582,-3.20475 4.38081,-3.82117 7.30775,-3.8014 1.92139,0.013 4.99252,0.72174 6.82474,1.575 1.83223,0.85327 22.64099,17.3464 46.24169,36.6514 23.6008,19.305 46.1865,37.7325 50.1906,40.95 4.0041,3.2175 8.1975,7.47 9.3185,9.45 3.9441,6.96605 2.1498,14.1911 -5.0405,20.29678 -11.7405,9.96952 -95.3841,77.85213 -98.3298,79.80151 -3.65567,2.4192 -9.91254,3.45073 -12.96101,2.13681 z M 12.794109,382.36307 c -1.68195,-1.11775 -3.9693398,-3.83606 -5.0830898,-6.0407 -1.91107,-3.78291 -2.02389,-5.07375 -2.00524,-22.94274 0.0171,-16.4212 0.23906,-19.41706 1.67193,-22.57153 2.7966598,-6.15683 9.3666198,-10.29256 16.3747098,-10.30775 4.81824,-0.0104 19.66839,-3.01201 29.6336,-5.98964 35.99081,-10.75419 67.478991,-36.56914 103.577481,-84.91593 4.25012,-5.6922 16.03867,-21.50683 26.19679,-35.14364 22.92277,-30.77279 33.54583,-43.6211 49.71632,-60.1306 14.07047,-14.36545 25.7,-24.45636 37.49834,-32.5372 32.83779,-22.491043 66.70116,-33.729545 107.53293,-35.687803 l 11.97841,-0.574474 0.27486,-25.737862 c 0.26506,-24.82121 0.34925,-25.888907 2.36371,-29.9789243 3.38959,-6.881968 9.22663,-9.361182 16.26401,-6.90794 2.98112,1.039225 7.00087,4.128507 33.82974,25.9990013 50.9175,41.507144 71.1378,58.315754 72.7296,60.457956 4.4494,5.988341 2.3896,15.729666 -4.5239,21.394226 -33.0564,27.08472 -90.4839,73.77583 -94.95622,77.20369 -9.18075,7.03666 -15.42957,7.32866 -20.86794,0.97512 -1.95765,-2.28705 -3.4606,-5.27565 -4.06099,-8.07519 -0.53302,-2.48535 -0.95316,-14.79931 -0.95316,-27.93606 l 0,-23.49165 -8.77499,0.54144 c -24.70939,1.52465 -48.91204,10.12647 -71.8745,25.54477 -12.85702,8.63294 -20.86566,15.34007 -34.1544,28.60386 -14.01942,13.9931 -25.35448,27.48806 -42.2932,50.3522 -26.46647,35.72483 -35.14041,47.18984 -42.61662,56.32963 -32.46313,39.68674 -64.70375,64.83487 -102.141251,79.67157 -19.28616,7.64322 -48.93695,13.92843 -65.70802,13.92843 -5.31827,0 -7.15375,-0.38739 -9.62891,-2.03226 z M 119.53602,177.67296 c -1.485,-0.79767 -5.7375,-4.29096 -9.45,-7.76288 -23.884891,-22.33704 -52.703001,-36.48872 -81.900001,-40.21859 -9.63303,-1.23059 -12.83176,-2.25007 -16.35093,-5.21127 -5.4442998,-4.58107 -6.1072798,-7.57391 -6.1293098,-27.669182 -0.0186,-16.935833 0.10358,-18.278453 2.00524,-22.042736 1.11375,-2.20464 3.4424998,-4.967864 5.1749998,-6.140497 3.01772,-2.042528 3.62243,-2.11046 14.4,-1.61769 24.20278,1.106597 49.37554,7.806079 73.349991,19.521381 19.4185,9.489 43.11207,25.983134 53.26835,37.082454 6.06005,6.62274 7.17711,15.16615 2.90213,22.1958 -5.05025,8.30446 -22.59426,30.72923 -25.024,31.9857 -3.45727,1.78782 -8.78939,1.73449 -12.24647,-0.12249 z"
     id="path9142"
     inkscape:connector-curvature="0"
     inkscape:export-xdpi="100"
     inkscape:export-ydpi="100" />
</svg>
